<?xml version="1.0" encoding="UTF-8"?>
<svg id="Layer_1" data-name="Layer 1" xmlns="http://www.w3.org/2000/svg" viewBox="0 0 512 190">
  <defs>
    <style>
      .cls-1, .cls-2 {
        fill: #48becc;
      }

      .cls-3 {
        fill: #535454;
      }

      .cls-2 {
        fill-rule: evenodd;
      }
    </style>
  </defs>
  <g>
    <path class="cls-3" d="M67.43,132.09c-1.01-.32-1.9-.48-2.67-.48-.86,0-1.54,.16-2.04,.48-.5,.32-.75,.77-.75,1.34,0,.52,.17,.95,.52,1.3,.35,.35,.79,.63,1.31,.86,.53,.22,1.25,.47,2.16,.74,1.27,.38,2.31,.75,3.12,1.13,.81,.38,1.5,.93,2.08,1.66,.57,.73,.86,1.7,.86,2.89s-.31,2.14-.92,2.99c-.62,.85-1.47,1.5-2.55,1.94-1.08,.45-2.32,.67-3.71,.67-1.47,0-2.89-.27-4.29-.82s-2.61-1.27-3.65-2.18l1.5-3.06c.95,.88,2.01,1.56,3.19,2.06s2.28,.75,3.3,.75,1.79-.19,2.36-.58c.57-.38,.86-.91,.86-1.57,0-.54-.17-.98-.52-1.33-.35-.35-.79-.63-1.33-.84-.54-.21-1.27-.46-2.2-.72-1.27-.38-2.3-.74-3.11-1.1-.8-.36-1.49-.9-2.06-1.62-.57-.72-.86-1.67-.86-2.85,0-1.09,.29-2.04,.87-2.85,.58-.81,1.4-1.44,2.47-1.89s2.29-.67,3.69-.67c1.21,0,2.42,.18,3.6,.54,1.19,.36,2.25,.84,3.18,1.45l-1.45,3.14c-.96-.59-1.95-1.05-2.96-1.37Z"/>
    <path class="cls-3" d="M99.09,134.41c.93,.99,1.39,2.34,1.39,4.03v8.95h-3.51v-7.93c0-1.02-.28-1.82-.84-2.4-.56-.58-1.33-.87-2.29-.87-1.11,.04-1.99,.44-2.64,1.21-.65,.77-.98,1.74-.98,2.92v7.08h-3.51v-7.93c0-1.02-.28-1.82-.83-2.4-.55-.58-1.31-.87-2.28-.87-1.13,.04-2.01,.44-2.67,1.21s-.98,1.74-.98,2.92v7.08h-3.48v-14.34h3.48v2.65c.95-1.82,2.63-2.75,5.04-2.79,1.25,0,2.3,.3,3.15,.9,.85,.6,1.44,1.44,1.78,2.53,.91-2.25,2.69-3.39,5.33-3.43,1.63,0,2.9,.5,3.83,1.49Z"/>
    <path class="cls-3" d="M114.94,147.39v-1.74c-.5,.63-1.14,1.1-1.93,1.42-.79,.32-1.69,.48-2.71,.48s-1.88-.19-2.64-.58c-.76-.38-1.34-.92-1.76-1.59-.41-.68-.62-1.44-.62-2.28,0-1.34,.47-2.39,1.42-3.15,.95-.76,2.29-1.15,4.02-1.17h4.18v-.38c0-.84-.28-1.49-.83-1.96-.55-.46-1.36-.7-2.41-.7-1.36,0-2.78,.45-4.26,1.34l-1.26-2.41c1.13-.62,2.15-1.08,3.07-1.35,.92-.28,2-.42,3.23-.42,1.86,0,3.3,.45,4.33,1.34,1.03,.89,1.55,2.14,1.57,3.75l.03,9.38h-3.43Zm-1.23-3.23c.71-.47,1.12-1.06,1.21-1.75v-1.29h-3.62c-.93,0-1.61,.14-2.05,.42-.44,.28-.66,.73-.66,1.35s.23,1.09,.68,1.45c.46,.36,1.08,.54,1.86,.54,1,0,1.86-.24,2.57-.71Z"/>
    <path class="cls-3" d="M128.92,133.69c.83-.49,1.8-.75,2.91-.76v3.38c-1.48-.09-2.67,.25-3.55,1.03s-1.33,1.83-1.33,3.15v6.91h-3.48v-14.34h3.48v2.76c.48-.93,1.14-1.64,1.97-2.13Z"/>
    <path class="cls-3" d="M143.85,146.51c-1.14,.7-2.34,1.05-3.59,1.05s-2.24-.36-3.03-1.09-1.18-1.79-1.18-3.2v-7.08h-2.01l-.03-2.55h2.04v-3.94h3.46v3.94h4.1v2.55h-4.1v6.46c0,.66,.12,1.13,.38,1.41,.25,.28,.62,.42,1.13,.42,.54,0,1.21-.2,2.04-.59l.8,2.63Z"/>
    <path class="cls-3" d="M159.6,134.91c1.15,1.3,1.73,3.14,1.73,5.49,0,.46,0,.81-.03,1.05h-10.59c.23,1.02,.71,1.82,1.43,2.4s1.61,.87,2.67,.87c.73,0,1.43-.14,2.1-.42,.67-.28,1.26-.67,1.76-1.19l1.88,1.96c-.71,.79-1.59,1.39-2.61,1.82-1.03,.43-2.17,.64-3.42,.64-1.47,0-2.76-.3-3.87-.91-1.12-.61-1.98-1.46-2.59-2.56-.61-1.1-.91-2.36-.91-3.79s.31-2.7,.92-3.81c.62-1.11,1.48-1.97,2.59-2.59s2.37-.92,3.78-.92c2.29,0,4.01,.65,5.16,1.96Zm-1.46,4.21c-.04-1.05-.38-1.89-1.05-2.52-.66-.62-1.54-.94-2.63-.94-1.02,0-1.87,.31-2.56,.92-.69,.62-1.11,1.46-1.27,2.53h7.5Z"/>
    <path class="cls-3" d="M170.92,133.69c.83-.49,1.8-.75,2.91-.76v3.38c-1.48-.09-2.67,.25-3.55,1.03s-1.33,1.83-1.33,3.15v6.91h-3.48v-14.34h3.48v2.76c.48-.93,1.14-1.64,1.97-2.13Z"/>
    <path class="cls-3" d="M179.57,144.34c.35,.34,.52,.8,.52,1.37,0,.27-.04,.51-.12,.72-.08,.21-.2,.47-.36,.78l-1.69,3.24h-1.74l1.13-3.19c-.54-.36-.8-.88-.8-1.55,0-.55,.17-1,.51-1.35,.34-.35,.77-.52,1.29-.52s.92,.17,1.27,.51Z"/>
    <path class="cls-3" d="M193.6,128.63h3.59v8.01h9.35v-8.01h3.59v18.76h-3.59v-7.61h-9.35v7.61h-3.59v-18.76Z"/>
    <path class="cls-3" d="M227.6,134.91c1.15,1.3,1.73,3.14,1.73,5.49,0,.46,0,.81-.03,1.05h-10.59c.23,1.02,.71,1.82,1.43,2.4s1.61,.87,2.67,.87c.73,0,1.43-.14,2.1-.42,.67-.28,1.26-.67,1.76-1.19l1.88,1.96c-.71,.79-1.59,1.39-2.61,1.82-1.03,.43-2.17,.64-3.42,.64-1.47,0-2.76-.3-3.87-.91-1.12-.61-1.98-1.46-2.59-2.56-.61-1.1-.91-2.36-.91-3.79s.31-2.7,.92-3.81c.62-1.11,1.48-1.97,2.59-2.59s2.37-.92,3.78-.92c2.29,0,4.01,.65,5.16,1.96Zm-1.46,4.21c-.04-1.05-.38-1.89-1.05-2.52-.66-.62-1.54-.94-2.63-.94-1.02,0-1.87,.31-2.56,.92-.69,.62-1.11,1.46-1.27,2.53h7.5Z"/>
    <path class="cls-3" d="M241.94,147.39v-1.74c-.5,.63-1.14,1.1-1.93,1.42-.79,.32-1.69,.48-2.71,.48s-1.88-.19-2.64-.58c-.76-.38-1.34-.92-1.76-1.59-.41-.68-.62-1.44-.62-2.28,0-1.34,.47-2.39,1.42-3.15,.95-.76,2.29-1.15,4.02-1.17h4.18v-.38c0-.84-.28-1.49-.83-1.96-.55-.46-1.36-.7-2.41-.7-1.36,0-2.78,.45-4.26,1.34l-1.26-2.41c1.13-.62,2.15-1.08,3.07-1.35,.92-.28,2-.42,3.23-.42,1.86,0,3.3,.45,4.33,1.34,1.03,.89,1.55,2.14,1.57,3.75l.03,9.38h-3.43Zm-1.23-3.23c.71-.47,1.12-1.06,1.21-1.75v-1.29h-3.62c-.93,0-1.61,.14-2.05,.42-.44,.28-.66,.73-.66,1.35s.23,1.09,.68,1.45c.46,.36,1.08,.54,1.86,.54,1,0,1.86-.24,2.57-.71Z"/>
    <path class="cls-3" d="M250.6,127.51h3.48v19.89h-3.48v-19.89Z"/>
    <path class="cls-3" d="M268.85,146.51c-1.14,.7-2.34,1.05-3.59,1.05s-2.24-.36-3.03-1.09-1.18-1.79-1.18-3.2v-7.08h-2.01l-.03-2.55h2.04v-3.94h3.46v3.94h4.1v2.55h-4.1v6.46c0,.66,.12,1.13,.38,1.41,.25,.28,.62,.42,1.13,.42,.54,0,1.21-.2,2.04-.59l.8,2.63Z"/>
    <path class="cls-3" d="M286.14,134.41c.95,.99,1.42,2.34,1.42,4.03v8.95h-3.51v-7.93c0-1-.29-1.79-.86-2.37-.57-.58-1.35-.87-2.33-.87-1.16,.02-2.08,.41-2.76,1.18-.68,.77-1.02,1.75-1.02,2.95v7.05h-3.48v-19.89h3.48v8.28c.98-1.88,2.71-2.83,5.17-2.87,1.64,0,2.94,.5,3.89,1.49Z"/>
    <path class="cls-3" d="M296.6,127.48c.38,.39,.56,.89,.56,1.5s-.19,1.08-.56,1.47c-.38,.39-.85,.59-1.42,.59s-1.05-.2-1.42-.59c-.38-.39-.56-.88-.56-1.47s.19-1.11,.56-1.5c.38-.39,.85-.59,1.42-.59s1.04,.2,1.42,.59Zm-3.14,5.57h3.48v14.34h-3.48v-14.34Z"/>
    <path class="cls-3" d="M313.6,134.91c1.15,1.3,1.73,3.14,1.73,5.49,0,.46,0,.81-.03,1.05h-10.59c.23,1.02,.71,1.82,1.43,2.4s1.61,.87,2.67,.87c.73,0,1.43-.14,2.1-.42,.67-.28,1.26-.67,1.76-1.19l1.88,1.96c-.71,.79-1.59,1.39-2.61,1.82-1.03,.43-2.17,.64-3.42,.64-1.47,0-2.76-.3-3.87-.91-1.12-.61-1.98-1.46-2.59-2.56-.61-1.1-.91-2.36-.91-3.79s.31-2.7,.92-3.81c.62-1.11,1.48-1.97,2.59-2.59s2.37-.92,3.78-.92c2.29,0,4.01,.65,5.16,1.96Zm-1.46,4.21c-.04-1.05-.38-1.89-1.05-2.52-.66-.62-1.54-.94-2.63-.94-1.02,0-1.87,.31-2.56,.92-.69,.62-1.11,1.46-1.27,2.53h7.5Z"/>
    <path class="cls-3" d="M324.92,133.69c.83-.49,1.8-.75,2.91-.76v3.38c-1.48-.09-2.67,.25-3.55,1.03s-1.33,1.83-1.33,3.15v6.91h-3.48v-14.34h3.48v2.76c.48-.93,1.14-1.64,1.97-2.13Z"/>
    <path class="cls-3" d="M351.34,147.39l-3.24-5.55c-.14,.02-.37,.03-.67,.03h-4.23v5.52h-3.59v-18.76h7.83c2.43,0,4.31,.56,5.63,1.69,1.32,1.12,1.98,2.72,1.98,4.77,0,1.46-.32,2.72-.95,3.75s-1.56,1.81-2.77,2.33l4.13,6.22h-4.1Zm-8.15-8.68h4.23c1.36,0,2.39-.29,3.11-.88,.71-.59,1.07-1.46,1.07-2.63s-.36-2-1.07-2.57c-.71-.57-1.75-.86-3.11-.86h-4.23v6.94Z"/>
    <path class="cls-3" d="M371.6,134.91c1.15,1.3,1.73,3.14,1.73,5.49,0,.46,0,.81-.03,1.05h-10.59c.23,1.02,.71,1.82,1.43,2.4s1.61,.87,2.67,.87c.73,0,1.43-.14,2.1-.42,.67-.28,1.26-.67,1.76-1.19l1.88,1.96c-.71,.79-1.59,1.39-2.61,1.82-1.03,.43-2.17,.64-3.42,.64-1.47,0-2.76-.3-3.87-.91-1.12-.61-1.98-1.46-2.59-2.56-.61-1.1-.91-2.36-.91-3.79s.31-2.7,.92-3.81c.62-1.11,1.48-1.97,2.59-2.59s2.37-.92,3.78-.92c2.29,0,4.01,.65,5.16,1.96Zm-1.46,4.21c-.04-1.05-.38-1.89-1.05-2.52-.66-.62-1.54-.94-2.63-.94-1.02,0-1.87,.31-2.56,.92-.69,.62-1.11,1.46-1.27,2.53h7.5Z"/>
    <path class="cls-3" d="M375.27,133.08l3.65-.03,3.75,10.91,3.67-10.91h3.51l-5.47,14.34h-3.59l-5.52-14.31Z"/>
    <path class="cls-3" d="M403.6,134.91c1.15,1.3,1.73,3.14,1.73,5.49,0,.46,0,.81-.03,1.05h-10.59c.23,1.02,.71,1.82,1.43,2.4s1.61,.87,2.67,.87c.73,0,1.43-.14,2.1-.42,.67-.28,1.26-.67,1.76-1.19l1.88,1.96c-.71,.79-1.59,1.39-2.61,1.82-1.03,.43-2.17,.64-3.42,.64-1.47,0-2.76-.3-3.87-.91-1.12-.61-1.98-1.46-2.59-2.56-.61-1.1-.91-2.36-.91-3.79s.31-2.7,.92-3.81c.62-1.11,1.48-1.97,2.59-2.59s2.37-.92,3.78-.92c2.29,0,4.01,.65,5.16,1.96Zm-1.46,4.21c-.04-1.05-.38-1.89-1.05-2.52-.66-.62-1.54-.94-2.63-.94-1.02,0-1.87,.31-2.56,.92-.69,.62-1.11,1.46-1.27,2.53h7.5Z"/>
    <path class="cls-3" d="M421.98,134.41c.95,.99,1.42,2.34,1.42,4.03v8.95h-3.51v-7.93c0-1-.29-1.79-.86-2.37-.57-.58-1.35-.87-2.33-.87-1.16,.02-2.08,.41-2.75,1.18s-1,1.75-1,2.95v7.05h-3.48v-14.34h3.48v2.68c.98-1.84,2.7-2.78,5.15-2.81,1.64,0,2.94,.5,3.89,1.49Z"/>
    <path class="cls-3" d="M441.71,133.06v14.34h-3.51v-2.65c-.96,1.86-2.63,2.79-4.98,2.79-1.61,0-2.88-.49-3.81-1.47-.93-.98-1.39-2.32-1.39-4.02v-8.98h3.51v7.96c0,1,.27,1.79,.82,2.36,.54,.57,1.3,.86,2.26,.86,1.11-.02,1.98-.41,2.63-1.18,.64-.77,.96-1.74,.96-2.92v-7.08h3.51Z"/>
    <path class="cls-3" d="M458.6,134.91c1.15,1.3,1.73,3.14,1.73,5.49,0,.46,0,.81-.03,1.05h-10.59c.23,1.02,.71,1.82,1.43,2.4s1.61,.87,2.67,.87c.73,0,1.43-.14,2.1-.42,.67-.28,1.26-.67,1.76-1.19l1.88,1.96c-.71,.79-1.59,1.39-2.61,1.82-1.03,.43-2.17,.64-3.42,.64-1.47,0-2.76-.3-3.87-.91-1.12-.61-1.98-1.46-2.59-2.56-.61-1.1-.91-2.36-.91-3.79s.31-2.7,.92-3.81c.62-1.11,1.48-1.97,2.59-2.59s2.37-.92,3.78-.92c2.29,0,4.01,.65,5.16,1.96Zm-1.46,4.21c-.04-1.05-.38-1.89-1.05-2.52-.66-.62-1.54-.94-2.63-.94-1.02,0-1.87,.31-2.56,.92-.69,.62-1.11,1.46-1.27,2.53h7.5Z"/>
  </g>
  <g>
    <g>
      <path class="cls-3" d="M169.23,85.09l-5.43,12.33h-9.77l23.87-54.18h9.77l23.87,54.18h-9.77l-5.43-12.33h-27.13Zm23.41-8.45l-9.85-22.32-9.84,22.32h19.69Z"/>
      <path class="cls-3" d="M225.65,97.41h-8.68V43.21h8.68v54.2Z"/>
      <path class="cls-3" d="M244.98,63.15v20.93c0,1.96,.52,3.53,1.55,4.69,1.03,1.16,2.48,1.74,4.34,1.74s3.64-.9,5.35-2.71l3.56,6.12c-3.05,2.74-6.42,4.11-10.11,4.11s-6.85-1.28-9.46-3.84c-2.61-2.56-3.91-6.01-3.91-10.35v-20.7h-5.19v-6.98h5.19v-12.95h8.68v12.95h10.85v6.98h-10.85Z"/>
      <path class="cls-3" d="M290.61,78.5v-22.32h8.68v41.24h-8.68v-7.52c-1.39,2.53-3.32,4.52-5.77,5.97-2.46,1.45-5.11,2.17-7.94,2.17-4.65,0-8.41-1.42-11.28-4.26-2.87-2.84-4.3-6.95-4.3-12.33v-25.27h8.68v22.63c0,7.6,3.15,11.39,9.46,11.39,2.99,0,5.6-.99,7.83-2.98,2.22-1.99,3.33-4.9,3.33-8.72Z"/>
      <path class="cls-1" d="M313.89,97.41h-9.14V43.23h14.26l16.35,34.03,16.36-34.03h14.18v54.18h-9.15V55.09c-6.3,14.1-12.61,28.19-18.91,42.29h-5.12c-6.28-14.1-12.56-28.19-18.83-42.29v42.32Z"/>
      <path class="cls-1" d="M410.97,43.21v8.62h-30.4v14.34h30.4v8.14h-30.4v14.49h30.32v8.6h-39.47V43.23c13.18,0,26.36-.01,39.55-.02Z"/>
      <path class="cls-1" d="M456.79,50.32c5.22,4.73,7.83,11.3,7.83,19.73s-2.53,15.09-7.6,20c-5.07,4.91-12.82,7.36-23.25,7.36h-17.98V43.23h18.6c9.71,0,17.18,2.36,22.4,7.09Zm-1.39,19.96c0-12.4-7.11-18.6-21.32-18.6h-9.15v37.13h10.16c6.56,0,11.59-1.56,15.08-4.69,3.49-3.13,5.23-7.74,5.23-13.84Z"/>
    </g>
    <path class="cls-2" d="M47.38,109.69l.36-.41,.36-.41c.72-.83,1.45-1.64,2.19-2.45l.68-.73,.05-.06,.69-.73,.41-.43c6.3-6.58,13.17-12.25,21.2-16.14,.23-.11,.46-.22,.68-.32l.08-.04c.33-.15,.66-.3,.99-.45l.15-.07c1.02-.45,2.06-.87,3.12-1.25l.16-.06c.33-.12,.66-.24,1-.35l.14-.05c.35-.12,.7-.23,1.05-.34l.1-.03c.34-.11,.69-.21,1.04-.31l.18-.05c.35-.1,.7-.2,1.05-.29l.11-.03c.36-.09,.73-.19,1.09-.28l.13-.03c.36-.09,.73-.17,1.1-.25l.15-.03c.37-.08,.73-.15,1.1-.23l.13-.02c.38-.07,.75-.14,1.13-.2h.09c.8-.15,1.6-.26,2.42-.36l.13-.02c.4-.05,.8-.09,1.2-.13h.1c.4-.05,.8-.08,1.2-.11h.16c.39-.04,.78-.06,1.17-.09h.21c.4-.03,.8-.05,1.21-.06h.12c.41-.01,.83-.02,1.24-.03h.17c.41,0,.83,0,1.24,0h.17c.43,0,.87,.02,1.31,.03h0c.94,.03,1.89,.09,2.86,.16h.06c.46,.04,.92,.08,1.39,.13h.12c.45,.05,.9,.1,1.36,.16l.18,.02c.45,.05,.91,.11,1.37,.18l.16,.02c.45,.06,.91,.13,1.37,.2l.22,.03c.46,.07,.92,.15,1.39,.23l.15,.03c.48,.09,.97,.18,1.45,.27l.14,.03c.49,.1,.99,.2,1.49,.31l.09,.02c.51,.11,1.03,.23,1.55,.35l.1,.02c.5,.12,1.01,.24,1.52,.37l.1,.02c.52,.13,1.05,.27,1.59,.41l.1,.03,.1,.03h0l-19.33-33.48c-1.24-2.15-4.34-2.15-5.58,0-5.11,8.85-10.22,17.7-15.33,26.55-6.61,3.59-13.21,7.18-19.82,10.76,.13-.23,.26-.45,.39-.68l12.82-22.2,.92-1.6,17.29-29.96c2.89-5.01,10.13-5.01,13.02,0l18.22,31.55,24.73,42.83-.4-.29-.7-.51c-.39-.28-.79-.56-1.18-.83l-.03-.02c-.28-.19-.56-.39-.84-.58l-.22-.15-.56-.38h-.01s-.27-.19-.27-.19l-.09-.06-.27-.18-.05-.03-.26-.17-.07-.05c-.3-.2-.6-.39-.91-.58l-.12-.07-.23-.15-.13-.08-.18-.11-.15-.09-.18-.11-.25-.15-.06-.04-.18-.11-.2-.12-.11-.07c-.51-.31-1.03-.61-1.54-.91l-.14-.08-.53-.31-.11-.06-.37-.21c-.74-.42-1.49-.82-2.24-1.21l-.22-.11-.08-.04-.14-.07-.61-.31-.29-.14-.16-.08-.23-.11h-.03s-.27-.15-.27-.15l-.13-.06-.26-.12h-.03c-2.3-1.11-4.6-2.09-6.92-2.94l-.1-.04c-.46-.17-.92-.33-1.39-.49l-.12-.04c-.45-.15-.9-.3-1.35-.45l-.18-.06c-.45-.14-.89-.28-1.34-.42l-.17-.05c-.44-.13-.89-.26-1.33-.38l-.2-.05c-.45-.12-.89-.24-1.34-.35l-.15-.04c-.46-.11-.92-.22-1.38-.33l-.11-.03c-.47-.11-.94-.21-1.42-.31h-.02c-.48-.1-.95-.2-1.43-.28l-.12-.02c-.46-.09-.93-.17-1.4-.24l-.14-.02c-.45-.07-.9-.14-1.35-.2l-.22-.03c-.45-.06-.9-.12-1.35-.18l-.16-.02c-.46-.05-.92-.1-1.39-.15h-.15c-.47-.06-.94-.1-1.41-.14h-.12c-.98-.08-1.97-.13-2.95-.17h-.05c-.47-.02-.94-.03-1.41-.03h-.19c-.46,0-.92,0-1.38,0h-.18c-.45,0-.89,.02-1.34,.03h-.27c-.45,.02-.89,.04-1.34,.06h-.18c-.47,.03-.94,.06-1.41,.1h-.12c-.49,.04-.98,.08-1.47,.13h-.01c-.49,.05-.98,.1-1.47,.15h-.12c-.46,.07-.93,.12-1.39,.18l-.22,.03c-.46,.06-.92,.13-1.38,.2l-.2,.03c-.45,.07-.9,.14-1.35,.22l-.27,.05c-.45,.08-.91,.16-1.36,.25l-.17,.03c-.48,.09-.97,.19-1.45,.29l-.08,.02c-1.02,.22-2.05,.45-3.08,.71h-.04c-.49,.13-.98,.26-1.46,.39l-.17,.05c-.47,.13-.93,.26-1.4,.39l-.22,.06c-.45,.13-.9,.27-1.36,.4l-.29,.09c-.45,.14-.89,.28-1.34,.43l-.23,.08c-6.18,2.03-12.43,4.76-18.75,8.16l-.43,.23h-.03s-.13,.09-.13,.09c-.5,.27-.99,.55-1.49,.83l-.19,.1-.21,.12-.15,.09-.21,.12-.28,.16-.07,.04c-.36,.2-.71,.41-1.07,.62l-.16,.09-.23,.13-.26,.15-.12,.07-.55,.33-.73,.44-.72,.44Zm71.58-23.78h0s0,0,0,0h0Z"/>
  </g>
</svg>