<svg xmlns="http://www.w3.org/2000/svg" width="22.365" height="20.14" viewBox="0 0 22.365 20.14">
  <path id="ic_gender" d="M13.331,12.387a.29.29,0,0,0-.254.093.3.3,0,0,0-.075.26,3.789,3.789,0,0,0,2.425,2.8,5.636,5.636,0,0,0,.91.241c1.481.32,3.957.857,4.566,3.127a.3.3,0,1,0,.578-.155c-.7-2.622-3.509-3.23-5.017-3.556a5.6,5.6,0,0,1-.8-.206,3.314,3.314,0,0,1-1.973-1.964c2.846.212,4.134-.922,4.191-.974a.3.3,0,0,0-.053-.481c-1.642-.938-1.642-4.18-1.642-5.4,0-3.414-2.3-6.121-5.248-6.163l-.084,0h0C7.864.019,5.43,2.728,5.43,6.043c0,1.221,0,4.464-1.642,5.4a.3.3,0,0,0-.036.5A5.615,5.615,0,0,0,7.9,12.975a3.341,3.341,0,0,1-1.947,1.889,5.879,5.879,0,0,1-.763.21C3.672,15.435.846,16.107.138,18.748a.3.3,0,0,0,.578.155c.615-2.3,3.118-2.892,4.612-3.248a6.019,6.019,0,0,0,.863-.243,3.79,3.79,0,0,0,2.425-2.8.3.3,0,0,0-.383-.341,4.763,4.763,0,0,1-3.766-.58c1.56-1.306,1.56-4.313,1.56-5.652A5.194,5.194,0,0,1,10.88.6l.063,0c2.649.038,4.646,2.43,4.646,5.565,0,1.339,0,4.352,1.567,5.659a6.159,6.159,0,0,1-3.826.561Z" transform="translate(0.374 0.498)" fill="#014146" stroke="#014146" stroke-width="1"/>
</svg>
