<svg xmlns="http://www.w3.org/2000/svg" width="21.267" height="20.404" viewBox="0 0 21.267 20.404">
  <path id="ic_mail" d="M10.266,4.966A6.1,6.1,0,0,1,14.541,6.81v0a.884.884,0,0,1,.868-.946h.128a.963.963,0,0,1,.951.983l0,8.4a.544.544,0,0,0,.912.481c1.348-1.386,2.961-7.123-.838-10.448A9.1,9.1,0,0,0,5.747,4.433a8.166,8.166,0,0,0-2.735,9.8c1.82,4.2,7.028,5.452,10.123,4.2,1.568-.634,2.292,1.485.664,2.177-2.46,1.049-9.306.943-12.5-4.6A10.136,10.136,0,0,1,4.98,2.289,11.184,11.184,0,0,1,18.629,4.042c3.643,3.805,3.431,10.93-.123,13.7a2.481,2.481,0,0,1-3.986-1.8l-.017-.6A5.977,5.977,0,0,1,10.265,17.1a6.2,6.2,0,0,1-6.037-6.036,6.237,6.237,0,0,1,6.038-6.1Zm4.042,5.869A3.826,3.826,0,0,0,10.334,7.07h-.08a3.78,3.78,0,0,0-3.782,4.085,3.7,3.7,0,0,0,3.771,3.971,3.958,3.958,0,0,0,4.069-3.816Z" transform="translate(-0.001 -0.731)" fill="#014146"/>
</svg>
