<svg xmlns="http://www.w3.org/2000/svg" width="21.57" height="27.443" viewBox="0 0 21.57 27.443">
  <g id="ic_primary" transform="translate(0.3 0.387)">
    <path id="Path_266" data-name="Path 266" d="M10.449,0c3.91,2.875,7.442,4.235,10.473,3.913C21.451,16.334,17.5,23.669,10.489,26.73,3.722,23.865-.281,16.845.016,3.725A13.594,13.594,0,0,0,10.449,0Zm0,1.535C13.914,4.079,17.04,5.283,19.724,5c.468,10.994-3.032,17.487-9.235,20.2C4.5,22.659.955,16.446,1.218,4.832a12.032,12.032,0,0,0,9.235-3.3Z" transform="translate(-0.001 0)" fill="#035f6c" stroke="#035f6c" stroke-width="0.6" fill-rule="evenodd"/>
    <text id="P" transform="translate(6.868 17.228)" fill="#035f6c" font-size="14" font-family="OpenSans-ExtraBold, Open Sans" font-weight="800"><tspan x="0" y="0">P</tspan></text>
  </g>
</svg>
