<svg xmlns="http://www.w3.org/2000/svg" width="21.3" height="21.3" viewBox="0 0 21.3 21.3">
  <g id="ic_calendar" transform="translate(0.62 0.926)">
    <rect id="Rectangle_943" data-name="Rectangle 943" width="20" height="18" rx="2.62" transform="translate(0.03 1.724)" fill="none" stroke="#014146" stroke-linecap="round" stroke-linejoin="round" stroke-width="1.3"/>
    <ellipse id="Ellipse_70" data-name="Ellipse 70" cx="0.5" cy="1" rx="0.5" ry="1" transform="translate(4.03 12.724)" fill="#014146"/>
    <circle id="Ellipse_71" data-name="Ellipse 71" cx="1" cy="1" r="1" transform="translate(7.03 12.724)" fill="#014146"/>
    <circle id="Ellipse_72" data-name="Ellipse 72" cx="1" cy="1" r="1" transform="translate(11.03 12.724)" fill="#014146"/>
    <circle id="Ellipse_73" data-name="Ellipse 73" cx="1" cy="1" r="1" transform="translate(14.03 12.724)" fill="#014146"/>
    <circle id="Ellipse_74" data-name="Ellipse 74" cx="1" cy="1" r="1" transform="translate(11.03 8.724)" fill="#014146"/>
    <circle id="Ellipse_75" data-name="Ellipse 75" cx="1" cy="1" r="1" transform="translate(14.03 8.724)" fill="#014146"/>
    <circle id="Ellipse_76" data-name="Ellipse 76" cx="0.5" cy="0.5" r="0.5" transform="translate(4.03 16.724)" fill="#014146"/>
    <ellipse id="Ellipse_77" data-name="Ellipse 77" cx="1" cy="0.5" rx="1" ry="0.5" transform="translate(7.03 16.724)" fill="#014146"/>
    <ellipse id="Ellipse_78" data-name="Ellipse 78" cx="1" cy="0.5" rx="1" ry="0.5" transform="translate(11.03 16.724)" fill="#014146"/>
    <line id="Line_384" data-name="Line 384" y2="6" transform="translate(5.03 -0.276)" fill="none" stroke="#014146" stroke-linecap="round" stroke-linejoin="round" stroke-width="1.3"/>
    <line id="Line_385" data-name="Line 385" y2="6" transform="translate(14.03 -0.276)" fill="none" stroke="#014146" stroke-linecap="round" stroke-linejoin="round" stroke-width="1.3"/>
  </g>
</svg>
