<svg xmlns="http://www.w3.org/2000/svg" width="24.413" height="24.458" viewBox="0 0 24.413 24.458">
  <path id="ic_phone" d="M25.579,19.812v3.381a2.254,2.254,0,0,1-2.457,2.254A22.3,22.3,0,0,1,13.4,21.987a21.973,21.973,0,0,1-6.761-6.761,22.3,22.3,0,0,1-3.459-9.77A2.254,2.254,0,0,1,5.419,3H8.8a2.254,2.254,0,0,1,2.254,1.938A14.469,14.469,0,0,0,11.842,8.1a2.254,2.254,0,0,1-.507,2.378L9.9,11.913a18.029,18.029,0,0,0,6.761,6.761L18.1,17.243a2.254,2.254,0,0,1,2.378-.507,14.469,14.469,0,0,0,3.166.789,2.254,2.254,0,0,1,1.938,2.287Z" transform="translate(-2.167 -2)" fill="none" stroke="#014146" stroke-linecap="round" stroke-linejoin="round" stroke-width="2"/>
</svg>
