<svg xmlns="http://www.w3.org/2000/svg" width="20.62" height="26.232" viewBox="0 0 20.62 26.232">
  <g id="ic_secondary" transform="translate(0.3 0.387)">
    <path id="Path_266" data-name="Path 266" d="M9.976,0c3.733,2.744,7.1,4.043,10,3.736.505,11.858-3.27,18.861-9.96,21.783C3.553,22.784-.268,16.082.015,3.556A12.979,12.979,0,0,0,9.976,0Zm0,1.465c3.3,2.429,6.289,3.579,8.851,3.307.447,10.5-2.894,16.7-8.816,19.282C4.3,21.633.912,15.7,1.163,4.613A11.487,11.487,0,0,0,9.979,1.465Z" transform="translate(-0.001)" fill="#035f6c" stroke="#035f6c" stroke-width="0.6" fill-rule="evenodd"/>
    <text id="S" transform="translate(6.393 16.623)" fill="#035f6c" font-size="14" font-family="OpenSans-ExtraBold, Open Sans" font-weight="800"><tspan x="0" y="0">S</tspan></text>
  </g>
</svg>
